<?xml version="1.0" standalone="no"?>
<!DOCTYPE svg PUBLIC "-//W3C//DTD SVG 20010904//EN"
 "http://www.w3.org/TR/2001/REC-SVG-20010904/DTD/svg10.dtd">
<svg version="1.0" xmlns="http://www.w3.org/2000/svg"
 width="640.000000pt" height="480.000000pt" viewBox="0 0 640.000000 480.000000"
 preserveAspectRatio="xMidYMid meet">
<metadata>
Created by potrace 1.15, written by Peter Selinger 2001-2017
</metadata>
<g transform="translate(0.000000,480.000000) scale(0.100000,-0.100000)"
fill="#000000" stroke="none">
<path d="M2975 4066 c-101 -17 -154 -31 -230 -63 -142 -59 -313 -203 -385
-324 l-33 -57 -26 51 c-14 29 -57 84 -96 123 -106 107 -230 161 -444 190 -117
16 -639 33 -1023 34 l-248 0 0 -1581 0 -1580 692 4 c780 4 773 3 927 79 103
50 161 106 205 198 l33 69 51 -78 c195 -299 653 -432 945 -274 67 37 147 111
187 173 18 28 33 50 35 50 2 0 20 -49 40 -110 l37 -110 259 0 258 0 3 150 3
151 40 -56 c79 -112 248 -219 426 -269 194 -55 504 -61 689 -13 168 44 315
125 430 238 170 167 213 324 227 827 l6 232 -411 0 -412 0 0 -217 c-1 -340
-12 -478 -44 -525 -27 -41 -81 -61 -139 -51 -56 8 -93 49 -104 111 -4 26 -8
481 -8 1012 0 913 1 968 18 1013 23 58 60 80 134 81 65 1 103 -25 119 -80 17
-58 23 -214 24 -536 l0 -288 410 0 411 0 -2 238 c-3 475 -38 681 -139 837 -84
129 -241 243 -415 303 -137 46 -219 57 -435 56 -188 -1 -213 -3 -303 -27 -260
-70 -451 -212 -554 -414 l-38 -72 -26 57 c-99 215 -324 374 -619 438 -102 22
-370 27 -475 10z m312 -548 c13 -14 29 -42 34 -64 6 -21 13 -166 16 -321 l6
-283 346 0 346 0 -2 -142 c-1 -79 -2 -146 -3 -150 0 -5 -187 -8 -415 -8 l-415
0 0 -240 0 -240 80 0 80 0 0 -267 c0 -285 -9 -374 -44 -426 -46 -68 -159 -73
-206 -8 -38 55 -41 142 -38 1126 3 884 4 942 21 982 23 52 65 75 126 69 29 -2
52 -12 68 -28z m-1827 -60 c45 -13 69 -34 89 -78 14 -31 16 -124 19 -820 4
-822 -3 -1012 -36 -1079 -21 -44 -84 -77 -164 -85 l-58 -6 0 1045 0 1045 58
-6 c31 -3 73 -10 92 -16z"/>
</g>
</svg>
